# xmcd
#
# Track frame offsets: 
#        150
#        15769
#        34988
#        56972
#        82321
#        99164
#        119822
#        142660
#        162460
#        178293
#        197591
#        216915
#        238416
#        260672
#        281353
#        301455
#
# Disc length: 4268 seconds
#
# Revision: 0
# Processed by: cddbd v1.5.2PL0 Copyright (c) Steve Scherf et al.
# Submitted via: ExactAudioCopyFreeDBPlugin 1.0
#
DISCID=ef10aa10
DTITLE=群星 - 发烧老情歌(男人篇)CD2
DYEAR=2008
DGENRE=Acid
TTITLE0=被遗忘的时光（王子月）
TTITLE1=此情可待（阿强）
TTITLE2=独角戏（钟明秋）
TTITLE3=后来（阿强）
TTITLE4=分手（钟明秋）
TTITLE5=别问我是谁（刘亮鹭）
TTITLE6=记事本（雨天）
TTITLE7=用心良苦（李付鸿煦）
TTITLE8=其实你不懂我的心（江智民）
TTITLE9=朋友别哭（钟明秋）
TTITLE10=外面的世界（刘亮鹭）
TTITLE11=阳光总在分雨后（邓杰）
TTITLE12=雨一直下（肖超）
TTITLE13=至少还有你（丁咚）
TTITLE14=羞答答的玫瑰静悄悄的开（刘亮鹭）
TTITLE15=最远的你是我最近的爱（陈宁）
EXTD=
EXTT0=
EXTT1=
EXTT2=
EXTT3=
EXTT4=
EXTT5=
EXTT6=
EXTT7=
EXTT8=
EXTT9=
EXTT10=
EXTT11=
EXTT12=
EXTT13=
EXTT14=
EXTT15=
PLAYORDER=
